<svg width="170" height="80" viewBox="0 0 170 80" fill="none" xmlns="http://www.w3.org/2000/svg">
<g clip-path="url(#clip0_131_2631)">
<path d="M81.5372 39.3523C81.5372 35.3526 80.1972 32.0575 77.517 29.4668C74.8369 26.8761 71.3869 25.5814 67.1668 25.5828H50.8334V66.8875H58.4933V52.2994H65.953L73.371 66.8885H81.5372L73.6098 51.1814C75.0715 50.6105 76.4174 49.7802 77.5824 48.7307C80.2183 46.3523 81.5366 43.2261 81.5372 39.3523ZM71.951 43.5833C70.7058 44.5936 68.8805 45.0991 66.4752 45.0998H58.4982V32.7211H66.4752C68.8811 32.7211 70.7064 33.2895 71.951 34.4264C73.1956 35.5632 73.8183 37.1419 73.8189 39.1625C73.8156 41.1001 73.193 42.5737 71.951 43.5833Z" fill="black"/>
<path d="M106.789 39.5411C104.446 37.5205 101.418 36.5103 97.7042 36.5103C94.0325 36.5103 91.0148 37.5416 88.6511 39.6044C86.2874 41.6672 84.8525 44.3198 84.3465 47.5623L91.9429 48.5726C92.1114 47.0159 92.6917 45.7424 93.684 44.7518C94.6762 43.7613 95.974 43.267 97.5773 43.269C99.0967 43.269 100.31 43.669 101.218 44.4691C102.126 45.2692 102.58 46.3427 102.58 47.6898V48.3818L92.7694 51.0973C89.8574 51.9396 87.7259 53.0237 86.3749 54.3497C85.024 55.6757 84.3488 57.4758 84.3495 59.7502C84.3495 62.2341 85.2357 64.2655 87.0081 65.8446C88.7806 67.4236 91.0174 68.2145 93.7187 68.2171C96.7575 68.2171 99.2054 67.0803 101.062 64.8066C102.337 63.248 103.174 61.3516 103.573 59.1175L104.735 59.6286L102.582 66.8915H110.3V46.9939C110.3 44.0473 109.13 41.5631 106.789 39.5411ZM100.87 59.8777C99.7306 60.9321 98.2323 61.4594 96.3753 61.4594C95.1089 61.4594 94.0747 61.207 93.2727 60.7021C92.4708 60.1973 92.0688 59.4173 92.0668 58.3622C92.0668 56.9723 93.1641 55.9617 95.3586 55.3303L102.577 53.3097V55.8355C102.579 57.4778 102.01 58.8252 100.87 59.8777Z" fill="black"/>
<path d="M123.28 25.5848H115.62V66.8885H123.28V25.5848Z" fill="black"/>
<path d="M136.257 25.5848H128.597V66.8885H136.257V25.5848Z" fill="black"/>
<path d="M161.707 37.8359L156.072 56.3406L155.378 59.8777H154.491L153.858 56.3406L148.098 37.8359H139.867L150.439 66.8885L149.745 69.4775C149.449 70.445 149.037 71.1291 148.511 71.5298C147.984 71.9305 147.214 72.1305 146.2 72.1298H141.642V79.0131H149.173C151.072 79.0259 152.921 78.4032 154.425 77.2446C155.986 76.0656 157.147 74.3814 157.907 72.1921L169.996 37.8349L161.707 37.8359Z" fill="black"/>
<path d="M18.2211 41.9819H40.1582V31.3342H40.1522C40.0918 27.2109 39.414 23.2043 37.8117 19.425C36.2094 15.6458 33.8807 12.087 30.9545 9.16683C28.0167 6.25826 24.5442 3.94228 20.7272 2.34581C16.7922 0.685043 12.5719 -0.00299072 8.26926 -0.00299072H0V10.9284H8.26926C19.652 10.9284 28.8805 20.0389 29.1401 31.3342H0V66.7135H10.6742V49.5127L27.9163 66.7135H43.016L18.2211 41.9819Z" fill="black"/>
</g>
<defs>
<clipPath id="clip0_131_2631">
<rect width="170" height="79.0141" fill="white"/>
</clipPath>
</defs>
</svg>
