<svg width="30" height="30" viewBox="0 0 30 30" fill="#a5a5a5" xmlns="http://www.w3.org/2000/svg">
  <path fill-rule="evenodd" clip-rule="evenodd" d="M15 27C12.2716 27.0043 9.62394 26.0748 7.497 24.366L7.5 24.3675V23.343C7.5 20.652 9.738 18.468 12.4995 18.468H17.5005C20.2605 18.468 22.5 20.652 22.5 23.343V24.3675C20.3737 26.0752 17.7272 27.0041 15 27ZM0 15C0 6.7155 6.7155 0 15 0C23.2845 0 30 6.7155 30 15C30 23.25 23.34 29.9445 15.102 30H14.895C6.657 29.943 0 23.25 0 15ZM15 7.5C12.24 7.5 10.0005 9.6825 10.0005 12.375C10.0005 15.0675 12.2385 17.25 15 17.25C17.76 17.25 19.9995 15.0675 19.9995 12.375C19.9995 9.6825 17.7615 7.5 15 7.5Z" fill="#A5A5A5" />
</svg>